# xmcd CD database file
#
# Track frame offsets:
#	202
#	25582
#	45732
#	65422
#	85037
#	109072
#	132342
#	146265
#
# Disc length: 2248 seconds
#
# Revision: 0
# Processed by: cddbd v1.5PL3 Copyright (c) Steve Scherf et al.
# Submitted via: CDex 1.50beta10
#
DISCID=6108c608
DTITLE=Theodis Ealey - Headed Back To Hurtsville
DYEAR=1992
DGENRE=Blues
TTITLE0=Old Time Blues
TTITLE1=Headed Back To Hurtsville, Again
TTITLE2=I'm The Man You Need
TTITLE3=Life After Love
TTITLE4=I Feel Good About Myself
TTITLE5=I Wanna Be Your Friend
TTITLE6=Love Is Necessary
TTITLE7=Lil' Brown Eyes
EXTD=YEAR: 1992
EXTT0=
EXTT1=
EXTT2=
EXTT3=
EXTT4=
EXTT5=
EXTT6=
EXTT7=
PLAYORDER=
